<svg xmlns="http://www.w3.org/2000/svg" xmlns:xlink="http://www.w3.org/1999/xlink" id="Capa_1" x="0" y="0" version="1.1" viewBox="0 0 58 58" xml:space="preserve" style="enable-background:new 0 0 58 58"><rect style="fill:#404c5e" width="58" height="26" y="29"/><rect style="fill:#38454f;stroke:#283238;stroke-width:2;stroke-linecap:round;stroke-miterlimit:10" width="6" height="18" x="11" y="33"/><rect style="fill:#38454f;stroke:#283238;stroke-width:2;stroke-linecap:round;stroke-miterlimit:10" width="6" height="18" x="17" y="33"/><rect style="fill:#38454f;stroke:#283238;stroke-width:2;stroke-linecap:round;stroke-miterlimit:10" width="6" height="18" x="23" y="33"/><rect style="fill:#38454f;stroke:#283238;stroke-width:2;stroke-linecap:round;stroke-miterlimit:10" width="6" height="18" x="29" y="33"/><rect style="fill:#38454f;stroke:#283238;stroke-width:2;stroke-linecap:round;stroke-miterlimit:10" width="6" height="18" x="35" y="33"/><circle style="fill:#283238" cx="48" cy="36" r="3"/><path style="fill:#546a79" d="M4,53c-0.553,0-1-0.447-1-1V32c0-0.553,0.447-1,1-1s1,0.447,1,1v20C5,52.553,4.553,53,4,53z"/><path style="fill:#546a79" d="M55,53c-0.553,0-1-0.447-1-1V32c0-0.553,0.447-1,1-1s1,0.447,1,1v20C56,52.553,55.553,53,55,53z"/><path style="fill:#546a79" d="M50,45h-4c-0.553,0-1-0.447-1-1s0.447-1,1-1h4c0.553,0,1,0.447,1,1S50.553,45,50,45z"/><path style="fill:#546a79" d="M50,48h-4c-0.553,0-1-0.447-1-1s0.447-1,1-1h4c0.553,0,1,0.447,1,1S50.553,48,50,48z"/><path style="fill:#546a79" d="M50,51h-4c-0.553,0-1-0.447-1-1s0.447-1,1-1h4c0.553,0,1,0.447,1,1S50.553,51,50,51z"/><rect style="fill:#38454f" width="58" height="26" y="3"/><rect style="fill:#38454f;stroke:#283238;stroke-width:2;stroke-linecap:round;stroke-miterlimit:10" width="6" height="18" x="11" y="7"/><rect style="fill:#38454f;stroke:#283238;stroke-width:2;stroke-linecap:round;stroke-miterlimit:10" width="6" height="18" x="17" y="7"/><rect style="fill:#38454f;stroke:#283238;stroke-width:2;stroke-linecap:round;stroke-miterlimit:10" width="6" height="18" x="23" y="7"/><rect style="fill:#38454f;stroke:#283238;stroke-width:2;stroke-linecap:round;stroke-miterlimit:10" width="6" height="18" x="29" y="7"/><rect style="fill:#38454f;stroke:#283238;stroke-width:2;stroke-linecap:round;stroke-miterlimit:10" width="6" height="18" x="35" y="7"/><circle style="fill:#283238" cx="48" cy="10" r="3"/><path style="fill:#546a79" d="M4,27c-0.553,0-1-0.447-1-1V6c0-0.553,0.447-1,1-1s1,0.447,1,1v20C5,26.553,4.553,27,4,27z"/><path style="fill:#546a79" d="M55,27c-0.553,0-1-0.447-1-1V6c0-0.553,0.447-1,1-1s1,0.447,1,1v20C56,26.553,55.553,27,55,27z"/><path style="fill:#546a79" d="M50,19h-4c-0.553,0-1-0.447-1-1s0.447-1,1-1h4c0.553,0,1,0.447,1,1S50.553,19,50,19z"/><path style="fill:#546a79" d="M50,22h-4c-0.553,0-1-0.447-1-1s0.447-1,1-1h4c0.553,0,1,0.447,1,1S50.553,22,50,22z"/><path style="fill:#546a79" d="M50,25h-4c-0.553,0-1-0.447-1-1s0.447-1,1-1h4c0.553,0,1,0.447,1,1S50.553,25,50,25z"/><circle style="fill:#21c6f7" cx="48" cy="36" r="2"/><circle style="fill:#21c6f7" cx="48" cy="10" r="2"/></svg>