<svg xmlns="http://www.w3.org/2000/svg" xmlns:xlink="http://www.w3.org/1999/xlink" id="Layer_1" x="0" y="0" version="1.1" viewBox="0 0 472.8 472.8" xml:space="preserve" style="enable-background:new 0 0 472.8 472.8"><polygon style="fill:#0d9b79" points="408 87.6 379.2 114.8 342.4 114.8 408 50.8 472.8 117.2 436 117.2"/><polyline style="fill:#23c181" points="408 50.8 472.8 117.2 436 117.2 408 87.6 379.2 114.8"/><polygon style="fill:#0d9b79" points="408 168.4 379.2 197.2 342.4 197.2 408 132.4 472.8 197.2 436 197.2"/><g><polyline style="fill:#23c181" points="408 132.4 472.8 197.2 436 197.2 408 168.4 379.2 197.2"/><path style="fill:#23c181" d="M350.4,237.2c-1.6,64-51.2,112.8-113.6,112.8c-63.2,0-114.4-50.4-114.4-113.6 c0-60.8,50.4-109.6,106.4-112.8V1.2C100.8,4.4,0,109.2,0,237.2c0,130.4,106.4,234.4,236.8,234.4c128.8,0,234.4-106.4,236-234.4 H350.4z"/></g><path style="fill:#0d9b79" d="M0.8,237.2c0,130.4,105.6,234.4,236,234.4c129.6,0,234.4-106.4,236-234.4H350.4	c-1.6,64-51.2,112.8-113.6,112.8c-63.2,0-114.4-50.4-114.4-113.6"/></svg>